<?xml version="1.0" encoding="UTF-8"?>
<svg xmlns="http://www.w3.org/2000/svg" viewBox="0 0 200 200" role="img">
  <defs>
    <radialGradient id="bg" cx="50%" cy="50%" r="55%">
      <stop offset="0%" stop-color="hsl(26,45%,12%)"/>
      <stop offset="100%" stop-color="hsl(26,55%,4%)"/>
    </radialGradient>
    <filter id="glow"><feGaussianBlur stdDeviation="2"/></filter>
  </defs>
  <rect width="200" height="200" fill="url(#bg)"/>
  <g filter="url(#glow)" opacity="0.55"><circle cx="100" cy="100" r="30" fill="none" stroke="#ffd166" stroke-width="0.6" opacity="0.55"/><circle cx="100" cy="100" r="48" fill="none" stroke="#ffd166" stroke-width="0.6" opacity="0.45"/><circle cx="100" cy="100" r="66" fill="none" stroke="#ffd166" stroke-width="0.6" opacity="0.35"/><circle cx="100" cy="100" r="84" fill="none" stroke="#ffd166" stroke-width="0.6" opacity="0.25"/><circle cx="100" cy="100" r="102" fill="none" stroke="#ffd166" stroke-width="0.6" opacity="0.15"/></g>
  <polygon points="56.7,133.9 54.4,69.2 115.2,47.1 155.0,98.1 118.8,151.7" fill="none" stroke="#ff6b6b" stroke-width="2.2" opacity="0.85"/>
  <polygon points="56.7,133.9 54.4,69.2 115.2,47.1 155.0,98.1 118.8,151.7" fill="#c94646" opacity="0.18"/>
  <circle cx="100" cy="100" r="6" fill="#ffd166"/><circle cx="100" cy="100" r="14" fill="none" stroke="#ffd166" stroke-width="1.2" opacity="0.8"/>
  <g><circle cx="85.5" cy="158.2" r="2" fill="#ffd166" opacity="0.7"/><circle cx="39.3" cy="128.3" r="2" fill="#ffd166" opacity="0.7"/><circle cx="33.5" cy="67.6" r="2" fill="#ffd166" opacity="0.7"/><circle cx="81.8" cy="21.1" r="2" fill="#ffd166" opacity="0.7"/><circle cx="154.2" cy="30.7" r="2" fill="#ffd166" opacity="0.7"/><circle cx="165.0" cy="98.9" r="2" fill="#ffd166" opacity="0.7"/><circle cx="146.3" cy="155.2" r="2" fill="#ffd166" opacity="0.7"/></g>
</svg>
