<?xml version="1.0" encoding="UTF-8"?>
<svg xmlns="http://www.w3.org/2000/svg" viewBox="0 0 200 200" role="img">
  <defs>
    <radialGradient id="bg" cx="50%" cy="50%" r="55%">
      <stop offset="0%" stop-color="hsl(312,45%,12%)"/>
      <stop offset="100%" stop-color="hsl(312,55%,4%)"/>
    </radialGradient>
    <filter id="glow"><feGaussianBlur stdDeviation="2"/></filter>
  </defs>
  <rect width="200" height="200" fill="url(#bg)"/>
  <g filter="url(#glow)" opacity="0.55"><circle cx="100" cy="100" r="30" fill="none" stroke="#06d6a0" stroke-width="0.6" opacity="0.55"/><circle cx="100" cy="100" r="48" fill="none" stroke="#06d6a0" stroke-width="0.6" opacity="0.45"/><circle cx="100" cy="100" r="66" fill="none" stroke="#06d6a0" stroke-width="0.6" opacity="0.35"/></g>
  <polygon points="95.2,45.2 145.1,68.5 149.8,123.2 104.8,154.8 54.9,131.5 50.2,76.8" fill="none" stroke="#3a86ff" stroke-width="2.2" opacity="0.85"/>
  <polygon points="95.2,45.2 145.1,68.5 149.8,123.2 104.8,154.8 54.9,131.5 50.2,76.8" fill="#1f5cc4" opacity="0.18"/>
  <circle cx="100" cy="100" r="6" fill="#06d6a0"/><circle cx="100" cy="100" r="14" fill="none" stroke="#06d6a0" stroke-width="1.2" opacity="0.8"/>
  <g><circle cx="159.1" cy="89.6" r="2" fill="#06d6a0" opacity="0.7"/><circle cx="150.6" cy="144.0" r="2" fill="#06d6a0" opacity="0.7"/><circle cx="97.4" cy="174.0" r="2" fill="#06d6a0" opacity="0.7"/><circle cx="35.3" cy="148.7" r="2" fill="#06d6a0" opacity="0.7"/><circle cx="14.6" cy="78.7" r="2" fill="#06d6a0" opacity="0.7"/><circle cx="72.5" cy="41.1" r="2" fill="#06d6a0" opacity="0.7"/><circle cx="131.6" cy="35.3" r="2" fill="#06d6a0" opacity="0.7"/></g>
</svg>
