<?xml version="1.0" encoding="UTF-8"?>
<svg xmlns="http://www.w3.org/2000/svg" viewBox="0 0 220 240" role="img" aria-label="Summon QR for seed 14949028094066440304">
  <title>Summon QR — https://kody-w.github.io/wildhaven-ai-homes-twin/#summon&seed=14949028094066440304</title>
  <desc>V1 placeholder QR-style visual. The actual summon URL is in the title attribute and the text below. Real scannable QR coming in V2.</desc>
  <rect width="220" height="240" fill="#fff"/>
  <g transform="translate(26 14)"><rect x="0" y="0" width="8" height="8" fill="#0a0a0a"/><rect x="8" y="0" width="8" height="8" fill="#0a0a0a"/><rect x="16" y="0" width="8" height="8" fill="#0a0a0a"/><rect x="24" y="0" width="8" height="8" fill="#0a0a0a"/><rect x="32" y="0" width="8" height="8" fill="#0a0a0a"/><rect x="40" y="0" width="8" height="8" fill="#0a0a0a"/><rect x="48" y="0" width="8" height="8" fill="#0a0a0a"/><rect x="64" y="0" width="8" height="8" fill="#0a0a0a"/><rect x="72" y="0" width="8" height="8" fill="#0a0a0a"/><rect x="88" y="0" width="8" height="8" fill="#0a0a0a"/><rect x="96" y="0" width="8" height="8" fill="#0a0a0a"/><rect x="104" y="0" width="8" height="8" fill="#0a0a0a"/><rect x="112" y="0" width="8" height="8" fill="#0a0a0a"/><rect x="120" y="0" width="8" height="8" fill="#0a0a0a"/><rect x="128" y="0" width="8" height="8" fill="#0a0a0a"/><rect x="136" y="0" width="8" height="8" fill="#0a0a0a"/><rect x="144" y="0" width="8" height="8" fill="#0a0a0a"/><rect x="152" y="0" width="8" height="8" fill="#0a0a0a"/><rect x="160" y="0" width="8" height="8" fill="#0a0a0a"/><rect x="0" y="8" width="8" height="8" fill="#0a0a0a"/><rect x="48" y="8" width="8" height="8" fill="#0a0a0a"/><rect x="56" y="8" width="8" height="8" fill="#0a0a0a"/><rect x="64" y="8" width="8" height="8" fill="#0a0a0a"/><rect x="72" y="8" width="8" height="8" fill="#0a0a0a"/><rect x="96" y="8" width="8" height="8" fill="#0a0a0a"/><rect x="0" y="16" width="8" height="8" fill="#0a0a0a"/><rect x="16" y="16" width="8" height="8" fill="#0a0a0a"/><rect x="24" y="16" width="8" height="8" fill="#0a0a0a"/><rect x="32" y="16" width="8" height="8" fill="#0a0a0a"/><rect x="48" y="16" width="8" height="8" fill="#0a0a0a"/><rect x="88" y="16" width="8" height="8" fill="#0a0a0a"/><rect x="0" y="24" width="8" height="8" fill="#0a0a0a"/><rect x="16" y="24" width="8" height="8" fill="#0a0a0a"/><rect x="24" y="24" width="8" height="8" fill="#0a0a0a"/><rect x="32" y="24" width="8" height="8" fill="#0a0a0a"/><rect x="48" y="24" width="8" height="8" fill="#0a0a0a"/><rect x="64" y="24" width="8" height="8" fill="#0a0a0a"/><rect x="72" y="24" width="8" height="8" fill="#0a0a0a"/><rect x="88" y="24" width="8" height="8" fill="#0a0a0a"/><rect x="96" y="24" width="8" height="8" fill="#0a0a0a"/><rect x="0" y="32" width="8" height="8" fill="#0a0a0a"/><rect x="16" y="32" width="8" height="8" fill="#0a0a0a"/><rect x="24" y="32" width="8" height="8" fill="#0a0a0a"/><rect x="32" y="32" width="8" height="8" fill="#0a0a0a"/><rect x="48" y="32" width="8" height="8" fill="#0a0a0a"/><rect x="88" y="32" width="8" height="8" fill="#0a0a0a"/><rect x="96" y="32" width="8" height="8" fill="#0a0a0a"/><rect x="104" y="32" width="8" height="8" fill="#0a0a0a"/><rect x="0" y="40" width="8" height="8" fill="#0a0a0a"/><rect x="48" y="40" width="8" height="8" fill="#0a0a0a"/><rect x="72" y="40" width="8" height="8" fill="#0a0a0a"/><rect x="80" y="40" width="8" height="8" fill="#0a0a0a"/><rect x="0" y="48" width="8" height="8" fill="#0a0a0a"/><rect x="8" y="48" width="8" height="8" fill="#0a0a0a"/><rect x="16" y="48" width="8" height="8" fill="#0a0a0a"/><rect x="24" y="48" width="8" height="8" fill="#0a0a0a"/><rect x="32" y="48" width="8" height="8" fill="#0a0a0a"/><rect x="40" y="48" width="8" height="8" fill="#0a0a0a"/><rect x="48" y="48" width="8" height="8" fill="#0a0a0a"/><rect x="64" y="48" width="8" height="8" fill="#0a0a0a"/><rect x="88" y="48" width="8" height="8" fill="#0a0a0a"/><rect x="104" y="48" width="8" height="8" fill="#0a0a0a"/><rect x="112" y="48" width="8" height="8" fill="#0a0a0a"/><rect x="120" y="48" width="8" height="8" fill="#0a0a0a"/><rect x="128" y="48" width="8" height="8" fill="#0a0a0a"/><rect x="136" y="48" width="8" height="8" fill="#0a0a0a"/><rect x="144" y="48" width="8" height="8" fill="#0a0a0a"/><rect x="152" y="48" width="8" height="8" fill="#0a0a0a"/><rect x="160" y="48" width="8" height="8" fill="#0a0a0a"/><rect x="0" y="56" width="8" height="8" fill="#0a0a0a"/><rect x="8" y="56" width="8" height="8" fill="#0a0a0a"/><rect x="16" y="56" width="8" height="8" fill="#0a0a0a"/><rect x="24" y="56" width="8" height="8" fill="#0a0a0a"/><rect x="40" y="56" width="8" height="8" fill="#0a0a0a"/><rect x="64" y="56" width="8" height="8" fill="#0a0a0a"/><rect x="80" y="56" width="8" height="8" fill="#0a0a0a"/><rect x="104" y="56" width="8" height="8" fill="#0a0a0a"/><rect x="112" y="56" width="8" height="8" fill="#0a0a0a"/><rect x="120" y="56" width="8" height="8" fill="#0a0a0a"/><rect x="136" y="56" width="8" height="8" fill="#0a0a0a"/><rect x="152" y="56" width="8" height="8" fill="#0a0a0a"/><rect x="160" y="56" width="8" height="8" fill="#0a0a0a"/><rect x="8" y="64" width="8" height="8" fill="#0a0a0a"/><rect x="16" y="64" width="8" height="8" fill="#0a0a0a"/><rect x="32" y="64" width="8" height="8" fill="#0a0a0a"/><rect x="48" y="64" width="8" height="8" fill="#0a0a0a"/><rect x="88" y="64" width="8" height="8" fill="#0a0a0a"/><rect x="96" y="64" width="8" height="8" fill="#0a0a0a"/><rect x="112" y="64" width="8" height="8" fill="#0a0a0a"/><rect x="144" y="64" width="8" height="8" fill="#0a0a0a"/><rect x="0" y="72" width="8" height="8" fill="#0a0a0a"/><rect x="32" y="72" width="8" height="8" fill="#0a0a0a"/><rect x="96" y="72" width="8" height="8" fill="#0a0a0a"/><rect x="104" y="72" width="8" height="8" fill="#0a0a0a"/><rect x="112" y="72" width="8" height="8" fill="#0a0a0a"/><rect x="120" y="72" width="8" height="8" fill="#0a0a0a"/><rect x="128" y="72" width="8" height="8" fill="#0a0a0a"/><rect x="152" y="72" width="8" height="8" fill="#0a0a0a"/><rect x="160" y="72" width="8" height="8" fill="#0a0a0a"/><rect x="0" y="80" width="8" height="8" fill="#0a0a0a"/><rect x="16" y="80" width="8" height="8" fill="#0a0a0a"/><rect x="48" y="80" width="8" height="8" fill="#0a0a0a"/><rect x="56" y="80" width="8" height="8" fill="#0a0a0a"/><rect x="80" y="80" width="8" height="8" fill="#0a0a0a"/><rect x="96" y="80" width="8" height="8" fill="#0a0a0a"/><rect x="112" y="80" width="8" height="8" fill="#0a0a0a"/><rect x="128" y="80" width="8" height="8" fill="#0a0a0a"/><rect x="136" y="80" width="8" height="8" fill="#0a0a0a"/><rect x="152" y="80" width="8" height="8" fill="#0a0a0a"/><rect x="160" y="80" width="8" height="8" fill="#0a0a0a"/><rect x="16" y="88" width="8" height="8" fill="#0a0a0a"/><rect x="32" y="88" width="8" height="8" fill="#0a0a0a"/><rect x="40" y="88" width="8" height="8" fill="#0a0a0a"/><rect x="56" y="88" width="8" height="8" fill="#0a0a0a"/><rect x="72" y="88" width="8" height="8" fill="#0a0a0a"/><rect x="80" y="88" width="8" height="8" fill="#0a0a0a"/><rect x="88" y="88" width="8" height="8" fill="#0a0a0a"/><rect x="112" y="88" width="8" height="8" fill="#0a0a0a"/><rect x="144" y="88" width="8" height="8" fill="#0a0a0a"/><rect x="152" y="88" width="8" height="8" fill="#0a0a0a"/><rect x="160" y="88" width="8" height="8" fill="#0a0a0a"/><rect x="8" y="96" width="8" height="8" fill="#0a0a0a"/><rect x="56" y="96" width="8" height="8" fill="#0a0a0a"/><rect x="72" y="96" width="8" height="8" fill="#0a0a0a"/><rect x="88" y="96" width="8" height="8" fill="#0a0a0a"/><rect x="96" y="96" width="8" height="8" fill="#0a0a0a"/><rect x="104" y="96" width="8" height="8" fill="#0a0a0a"/><rect x="112" y="96" width="8" height="8" fill="#0a0a0a"/><rect x="128" y="96" width="8" height="8" fill="#0a0a0a"/><rect x="0" y="104" width="8" height="8" fill="#0a0a0a"/><rect x="8" y="104" width="8" height="8" fill="#0a0a0a"/><rect x="16" y="104" width="8" height="8" fill="#0a0a0a"/><rect x="32" y="104" width="8" height="8" fill="#0a0a0a"/><rect x="40" y="104" width="8" height="8" fill="#0a0a0a"/><rect x="48" y="104" width="8" height="8" fill="#0a0a0a"/><rect x="72" y="104" width="8" height="8" fill="#0a0a0a"/><rect x="80" y="104" width="8" height="8" fill="#0a0a0a"/><rect x="96" y="104" width="8" height="8" fill="#0a0a0a"/><rect x="112" y="104" width="8" height="8" fill="#0a0a0a"/><rect x="120" y="104" width="8" height="8" fill="#0a0a0a"/><rect x="128" y="104" width="8" height="8" fill="#0a0a0a"/><rect x="144" y="104" width="8" height="8" fill="#0a0a0a"/><rect x="152" y="104" width="8" height="8" fill="#0a0a0a"/><rect x="0" y="112" width="8" height="8" fill="#0a0a0a"/><rect x="48" y="112" width="8" height="8" fill="#0a0a0a"/><rect x="56" y="112" width="8" height="8" fill="#0a0a0a"/><rect x="72" y="112" width="8" height="8" fill="#0a0a0a"/><rect x="80" y="112" width="8" height="8" fill="#0a0a0a"/><rect x="104" y="112" width="8" height="8" fill="#0a0a0a"/><rect x="112" y="112" width="8" height="8" fill="#0a0a0a"/><rect x="128" y="112" width="8" height="8" fill="#0a0a0a"/><rect x="0" y="120" width="8" height="8" fill="#0a0a0a"/><rect x="48" y="120" width="8" height="8" fill="#0a0a0a"/><rect x="56" y="120" width="8" height="8" fill="#0a0a0a"/><rect x="64" y="120" width="8" height="8" fill="#0a0a0a"/><rect x="96" y="120" width="8" height="8" fill="#0a0a0a"/><rect x="104" y="120" width="8" height="8" fill="#0a0a0a"/><rect x="112" y="120" width="8" height="8" fill="#0a0a0a"/><rect x="120" y="120" width="8" height="8" fill="#0a0a0a"/><rect x="160" y="120" width="8" height="8" fill="#0a0a0a"/><rect x="0" y="128" width="8" height="8" fill="#0a0a0a"/><rect x="48" y="128" width="8" height="8" fill="#0a0a0a"/><rect x="56" y="128" width="8" height="8" fill="#0a0a0a"/><rect x="96" y="128" width="8" height="8" fill="#0a0a0a"/><rect x="104" y="128" width="8" height="8" fill="#0a0a0a"/><rect x="112" y="128" width="8" height="8" fill="#0a0a0a"/><rect x="128" y="128" width="8" height="8" fill="#0a0a0a"/><rect x="144" y="128" width="8" height="8" fill="#0a0a0a"/><rect x="160" y="128" width="8" height="8" fill="#0a0a0a"/><rect x="0" y="136" width="8" height="8" fill="#0a0a0a"/><rect x="48" y="136" width="8" height="8" fill="#0a0a0a"/><rect x="56" y="136" width="8" height="8" fill="#0a0a0a"/><rect x="80" y="136" width="8" height="8" fill="#0a0a0a"/><rect x="120" y="136" width="8" height="8" fill="#0a0a0a"/><rect x="128" y="136" width="8" height="8" fill="#0a0a0a"/><rect x="0" y="144" width="8" height="8" fill="#0a0a0a"/><rect x="48" y="144" width="8" height="8" fill="#0a0a0a"/><rect x="72" y="144" width="8" height="8" fill="#0a0a0a"/><rect x="96" y="144" width="8" height="8" fill="#0a0a0a"/><rect x="104" y="144" width="8" height="8" fill="#0a0a0a"/><rect x="128" y="144" width="8" height="8" fill="#0a0a0a"/><rect x="160" y="144" width="8" height="8" fill="#0a0a0a"/><rect x="0" y="152" width="8" height="8" fill="#0a0a0a"/><rect x="48" y="152" width="8" height="8" fill="#0a0a0a"/><rect x="64" y="152" width="8" height="8" fill="#0a0a0a"/><rect x="72" y="152" width="8" height="8" fill="#0a0a0a"/><rect x="88" y="152" width="8" height="8" fill="#0a0a0a"/><rect x="96" y="152" width="8" height="8" fill="#0a0a0a"/><rect x="104" y="152" width="8" height="8" fill="#0a0a0a"/><rect x="112" y="152" width="8" height="8" fill="#0a0a0a"/><rect x="120" y="152" width="8" height="8" fill="#0a0a0a"/><rect x="128" y="152" width="8" height="8" fill="#0a0a0a"/><rect x="152" y="152" width="8" height="8" fill="#0a0a0a"/><rect x="160" y="152" width="8" height="8" fill="#0a0a0a"/><rect x="0" y="160" width="8" height="8" fill="#0a0a0a"/><rect x="48" y="160" width="8" height="8" fill="#0a0a0a"/><rect x="56" y="160" width="8" height="8" fill="#0a0a0a"/><rect x="88" y="160" width="8" height="8" fill="#0a0a0a"/><rect x="96" y="160" width="8" height="8" fill="#0a0a0a"/><rect x="112" y="160" width="8" height="8" fill="#0a0a0a"/><rect x="136" y="160" width="8" height="8" fill="#0a0a0a"/><rect x="160" y="160" width="8" height="8" fill="#0a0a0a"/></g>
  <text x="110" y="200" text-anchor="middle" font-family="monospace" font-size="9" fill="#0a0a0a">seed=14949028094066440304</text>
  <text x="110" y="218" text-anchor="middle" font-family="monospace" font-size="8" fill="#555">#summon&amp;seed=...</text>
  <text x="110" y="232" text-anchor="middle" font-family="Georgia,serif" font-size="9" fill="#222" font-style="italic">V1 placeholder — see title for full URL</text>
</svg>
