<svg xmlns="http://www.w3.org/2000/svg" viewBox="0 0 192 192">
  <rect width="192" height="192" rx="32" fill="#0d1117"/>
  <path d="M68 40c-14 0-25 11-25 25 0 4 1 8 3 12-9 6-15 17-15 28 0 19 15 34 34 34h2v13c0 14 11 25 25 25h4V42c0-1.1-.9-2-2-2H68z" fill="#1f6feb"/>
  <path d="M124 40c14 0 25 11 25 25 0 4-1 8-3 12 9 6 15 17 15 28 0 19-15 34-34 34h-2v13c0 14-11 25-25 25h-4V42c0-1.1.9-2 2-2h26z" fill="#58a6ff"/>
  <circle cx="68" cy="80" r="4" fill="#0d1117"/>
  <circle cx="124" cy="80" r="4" fill="#0d1117"/>
</svg>
